<svg width="410" height="150" viewBox="0 0 410 150" fill="none" xmlns="http://www.w3.org/2000/svg">
<path d="M26.741 135.071H23.7604V106.877H26.741V135.071ZM43.8291 135.071H40.929V106.877H43.5069L61.3099 129.916V106.877H64.21V135.071H61.6724L43.8291 111.952V135.071ZM81.1023 135.071H78.2023V106.877H80.7801L98.5832 129.916V106.877H101.483V135.071H98.9457L81.1023 111.952V135.071ZM118.335 110.582C121.047 107.79 124.431 106.393 128.485 106.393C132.513 106.393 135.883 107.79 138.595 110.582C141.307 113.375 142.663 116.839 142.663 120.974C142.663 125.136 141.307 128.613 138.595 131.406C135.91 134.172 132.54 135.555 128.485 135.555C124.404 135.555 121.021 134.172 118.335 131.406C115.65 128.64 114.307 125.163 114.307 120.974C114.307 116.812 115.65 113.348 118.335 110.582ZM120.551 129.392C122.672 131.648 125.317 132.776 128.485 132.776C131.654 132.776 134.299 131.648 136.42 129.392C138.569 127.11 139.643 124.304 139.643 120.974C139.643 117.644 138.569 114.838 136.42 112.556C134.299 110.3 131.654 109.172 128.485 109.172C125.317 109.172 122.672 110.3 120.551 112.556C118.402 114.838 117.328 117.644 117.328 120.974C117.328 124.304 118.402 127.11 120.551 129.392ZM166.22 135.233H163.441L151.035 106.877H154.298L164.851 131.124L175.404 106.877H178.666L166.22 135.233ZM193.243 135.071H190.263V106.877H193.243V135.071ZM207.754 135.071H204.652L217.219 106.715H219.998L232.605 135.071H229.464L225.96 127.298H211.177L207.754 135.071ZM218.589 110.461L212.184 124.68H224.993L218.589 110.461ZM246.781 135.071H243.8V106.877H255.642C258.435 106.877 260.636 107.588 262.248 109.011C263.859 110.434 264.664 112.328 264.664 114.691C264.664 117.107 263.859 119.041 262.248 120.491C260.636 121.914 258.435 122.625 255.642 122.625H246.781V135.071ZM246.781 109.575V119.927H255.44C257.428 119.927 258.972 119.484 260.073 118.598C261.173 117.685 261.724 116.409 261.724 114.771C261.724 113.106 261.173 111.831 260.073 110.945C258.998 110.032 257.454 109.575 255.44 109.575H246.781ZM279.609 135.071H276.629V106.877H289.236C291.975 106.877 294.136 107.575 295.72 108.971C297.332 110.34 298.137 112.193 298.137 114.529C298.137 116.543 297.546 118.222 296.365 119.564C295.21 120.907 293.586 121.753 291.491 122.102L300.594 135.071H297.09L288.229 122.384H279.609V135.071ZM279.609 109.575V119.685H289.075C291.008 119.685 292.498 119.255 293.545 118.396C294.62 117.51 295.157 116.261 295.157 114.65C295.157 113.039 294.62 111.791 293.545 110.904C292.471 110.018 290.981 109.575 289.075 109.575H279.609ZM315.51 135.071H312.53V106.877H315.51V135.071ZM332.598 135.071H329.698V106.877H332.276L350.079 129.916V106.877H352.979V135.071H350.442L332.598 111.952V135.071ZM377.122 135.071H374.141V109.575H364.434V106.877H386.95V109.575H377.122V135.071Z" fill="black"/>
<path fill-rule="evenodd" clip-rule="evenodd" d="M220.289 18.6347L202.662 8.04286L185.035 18.6347H220.289ZM226.804 22.549H178.521L168.937 28.3079H236.388L226.804 22.549ZM242.902 32.2221H162.423L152.838 37.981H252.486L242.902 32.2221ZM259 41.8953H146.324L136.74 47.6542H268.584L259 41.8953ZM275.098 51.5685H130.226L120.642 57.3274H284.683L275.098 51.5685ZM291.197 61.2416H114.128L104.544 67.0005H300.781L291.197 61.2416ZM307.295 70.9148H98.0293L88.4453 76.6737H316.879L307.295 70.9148ZM323.393 80.588H81.931L69.5249 88.0426H335.799L323.393 80.588Z" fill="url(#paint0_linear_13_16)"/>
<defs>
<linearGradient id="paint0_linear_13_16" x1="202.662" y1="8.04286" x2="202.662" y2="88.0426" gradientUnits="userSpaceOnUse">
<stop stop-color="#51B3FB"/>
<stop offset="1" stop-color="#2042E8"/>
</linearGradient>
</defs>
</svg>
